# Blender 3.3.1
# www.blender.org
mtllib stairs_segment.mtl
o Plane
v -0.600000 0.600000 -2.602569
v 1.000000 -1.000000 -0.000000
v -1.000000 1.000000 0.000000
v 0.200000 -0.600000 -2.602569
v 0.200000 -1.000000 -2.602569
v -1.000000 1.000000 -2.602569
v 0.200000 -1.000000 -0.000000
v 0.600000 -1.000000 -0.000000
v -0.200000 0.600000 -2.602569
v -0.200000 0.200000 -2.602569
v -0.200000 -0.200000 -2.602569
v -0.600000 1.000000 0.000000
v -1.000000 0.600000 0.000000
v -1.000000 0.200000 0.000000
v -0.600000 1.000000 -2.602569
v 1.000000 -1.000000 -2.602569
v 1.000000 -0.600000 -0.000000
v -0.200000 -0.600000 -2.602569
v -0.600000 0.200000 -2.602569
v -0.600000 -0.200000 -2.602569
v 0.600000 -1.000000 -2.602569
v -0.600000 -0.200000 -0.000000
v -0.600000 0.200000 0.000000
v -0.600000 0.600000 0.000000
v -0.200000 -0.600000 -0.000000
v -0.200000 -0.200000 -0.000000
v -0.200000 0.200000 0.000000
v -0.200000 0.600000 0.000000
v 0.200000 -0.600000 -0.000000
v 0.200000 -0.200000 -0.000000
v 0.200000 0.200000 0.000000
v 1.000000 -0.600000 -2.602569
v 0.600000 -0.600000 -0.000000
v 0.600000 -0.200000 -0.000000
v -1.000000 0.200000 -2.602569
v -1.000000 0.600000 -2.602569
v 0.200000 -0.200000 -2.602569
v 0.200000 0.200000 -2.602569
v 0.600000 -0.600000 -2.602569
v 0.600000 -0.200000 -2.602569
vn 1.0000 -0.0000 -0.0000
vn -0.0000 -0.0000 1.0000
vn -0.0000 -1.0000 -0.0000
vn -0.0000 1.0000 -0.0000
vn -1.0000 -0.0000 -0.0000
vn -0.0000 -0.0000 -1.0000
vt 0.200000 0.800000
vt 1.000000 0.000000
vt 0.000000 1.000000
vt 0.600000 0.200000
vt 0.600000 0.000000
vt 0.000000 1.000000
vt 0.600000 0.000000
vt 0.800000 0.000000
vt 0.400000 0.800000
vt 0.400000 0.600000
vt 0.400000 0.400000
vt 0.200000 1.000000
vt 0.000000 0.800000
vt 0.000000 0.600000
vt 0.200000 1.000000
vt 1.000000 0.000000
vt 1.000000 0.200000
vt 0.400000 0.200000
vt 0.200000 0.600000
vt 0.200000 0.400000
vt 0.800000 0.000000
vt 0.200000 0.400000
vt 0.200000 0.600000
vt 0.200000 0.800000
vt 0.400000 0.200000
vt 0.400000 0.400000
vt 0.400000 0.600000
vt 0.400000 0.800000
vt 0.600000 0.200000
vt 0.600000 0.400000
vt 0.600000 0.600000
vt 1.000000 0.200000
vt 0.800000 0.200000
vt 0.800000 0.400000
vt 0.000000 0.600000
vt 0.000000 0.800000
vt 0.600000 0.400000
vt 0.600000 0.600000
vt 0.800000 0.200000
vt 0.800000 0.400000
s 0
usemtl Material.001
f 24/24/1 1/1/1 15/15/1 12/12/1
f 13/13/2 24/24/2 12/12/2 3/3/2
f 22/22/3 20/20/3 11/11/3 26/26/3
f 30/30/1 37/37/1 38/38/1 31/31/1
f 17/17/4 32/32/4 39/39/4 33/33/4
f 7/7/2 8/8/2 33/33/2 29/29/2
f 29/29/2 33/33/2 34/34/2 30/30/2
f 34/34/4 40/40/4 37/37/4 30/30/4
f 23/23/5 19/19/5 20/20/5 22/22/5
f 20/20/6 19/19/6 10/10/6 11/11/6
f 25/25/2 29/29/2 30/30/2 26/26/2
f 26/26/2 30/30/2 31/31/2 27/27/2
f 12/12/4 15/15/4 6/6/4 3/3/4
f 11/11/6 10/10/6 38/38/6 37/37/6
f 18/18/6 11/11/6 37/37/6 4/4/6
f 22/22/2 26/26/2 27/27/2 23/23/2
f 23/23/2 27/27/2 28/28/2 24/24/2
f 4/4/6 37/37/6 40/40/6 39/39/6
f 5/5/6 4/4/6 39/39/6 21/21/6
f 36/36/6 6/6/6 15/15/6 1/1/6
f 14/14/2 23/23/2 24/24/2 13/13/2
f 8/8/2 2/2/2 17/17/2 33/33/2
f 21/21/6 39/39/6 32/32/6 16/16/6
f 35/35/6 36/36/6 1/1/6 19/19/6
f 19/19/6 1/1/6 9/9/6 10/10/6
f 2/2/1 16/16/1 32/32/1 17/17/1
f 28/28/4 9/9/4 1/1/4 24/24/4
f 26/26/5 11/11/5 18/18/5 25/25/5
f 25/25/3 18/18/3 4/4/3 29/29/3
f 7/7/3 5/5/3 21/21/3 8/8/3
f 33/33/1 39/39/1 40/40/1 34/34/1
f 8/8/3 21/21/3 16/16/3 2/2/3
f 3/3/5 6/6/5 36/36/5 13/13/5
f 27/27/1 10/10/1 9/9/1 28/28/1
f 31/31/4 38/38/4 10/10/4 27/27/4
f 14/14/3 35/35/3 19/19/3 23/23/3
f 13/13/5 36/36/5 35/35/5 14/14/5
f 29/29/5 4/4/5 5/5/5 7/7/5
